<svg width="51" height="50" viewBox="0 0 51 50" fill="none" xmlns="http://www.w3.org/2000/svg">
<path fill-rule="evenodd" clip-rule="evenodd" d="M11.3749 0H38.9943C42.0084 0.00862653 44.8967 1.20628 47.028 3.33132C49.1593 5.45636 50.3605 8.33606 50.3692 11.3413V38.6504C50.3594 41.6549 49.1578 44.5336 47.0266 46.6577C44.8953 48.7819 42.0077 49.979 38.9943 49.9876H11.3749C8.36144 49.979 5.47384 48.7819 3.34262 46.6577C1.21141 44.5336 0.00973285 41.6549 0 38.6504V11.3413C0.00865206 8.33606 1.20985 5.45636 3.34118 3.33132C5.47251 1.20628 8.36073 0.00862653 11.3749 0V0Z" fill="white"/>
<g clip-path="url(#clip0_3_129)">
<path d="M10.7885 38.1585H16.3735V24.5949L8.3949 18.6109V35.7649C8.3949 37.0893 9.46802 38.1585 10.7885 38.1585Z" fill="#56A2FF"/>
<path d="M35.5221 38.1585H41.1071C42.4316 38.1585 43.5007 37.0854 43.5007 35.7649V18.6109L35.5221 24.5949" fill="#56A2FF"/>
<path d="M35.5221 14.2227V24.5949L43.5007 18.6109V15.4195C43.5007 12.4594 40.1218 10.772 37.7561 12.5472" fill="#56A2FF"/>
<path d="M16.3735 24.5949V14.2227L25.9478 21.4034L35.5221 14.2227V24.5949L25.9478 31.7756" fill="#56A2FF"/>
<path d="M8.3949 15.4195V18.6109L16.3735 24.5949V14.2227L14.1395 12.5472C11.7698 10.772 8.3949 12.4594 8.3949 15.4195" fill="#56A2FF"/>
</g>
<defs>
<clipPath id="clip0_3_129">
<rect width="35.1058" height="26.3293" fill="white" transform="translate(8.3949 11.8291)"/>
</clipPath>
</defs>
</svg>
