<svg width="50" height="50" viewBox="0 0 50 50" fill="none" xmlns="http://www.w3.org/2000/svg">
<path d="M25.0122 0.378784C14.7314 0.378784 11.7247 0.38939 11.1402 0.437875C9.03045 0.613254 7.71761 0.945451 6.28735 1.65757C5.18511 2.20492 4.31582 2.83939 3.45789 3.72878C1.89544 5.35075 0.948498 7.34621 0.605705 9.71818C0.439043 10.8697 0.39056 11.1045 0.380712 16.9864C0.376924 18.947 0.380712 21.5273 0.380712 24.9883C0.380712 35.261 0.392075 38.2648 0.441316 38.8481C0.611765 40.9011 0.933725 42.1928 1.61552 43.6057C2.91851 46.3102 5.40708 48.3405 8.33881 49.0981C9.35393 49.3595 10.4751 49.5034 11.9145 49.5716C12.5243 49.5981 18.74 49.617 24.9595 49.617C31.179 49.617 37.3985 49.6095 37.9932 49.5792C39.6598 49.5008 40.6276 49.3708 41.6976 49.0943C44.6483 48.3329 47.0914 46.3329 48.4209 43.5905C49.0895 42.2117 49.4285 40.8708 49.5819 38.925C49.6152 38.5008 49.6292 31.7367 49.6292 24.9818C49.6292 18.2258 49.6141 11.4742 49.5807 11.05C49.4254 9.07272 49.0864 7.74318 48.3963 6.33787C47.83 5.1875 47.2013 4.3284 46.2884 3.45C44.6593 1.89394 42.6669 0.946966 40.2928 0.604542C39.1424 0.438254 38.9133 0.389011 33.0271 0.378784H25.0122Z" fill="url(#paint0_radial_3_117)"/>
<path d="M25.0122 0.378784C14.7314 0.378784 11.7247 0.38939 11.1402 0.437875C9.03045 0.613254 7.71761 0.945451 6.28735 1.65757C5.18511 2.20492 4.31582 2.83939 3.45789 3.72878C1.89544 5.35075 0.948498 7.34621 0.605705 9.71818C0.439043 10.8697 0.39056 11.1045 0.380712 16.9864C0.376924 18.947 0.380712 21.5273 0.380712 24.9883C0.380712 35.261 0.392075 38.2648 0.441316 38.8481C0.611765 40.9011 0.933725 42.1928 1.61552 43.6057C2.91851 46.3102 5.40708 48.3405 8.33881 49.0981C9.35393 49.3595 10.4751 49.5034 11.9145 49.5716C12.5243 49.5981 18.74 49.617 24.9595 49.617C31.179 49.617 37.3985 49.6095 37.9932 49.5792C39.6598 49.5008 40.6276 49.3708 41.6976 49.0943C44.6483 48.3329 47.0914 46.3329 48.4209 43.5905C49.0895 42.2117 49.4285 40.8708 49.5819 38.925C49.6152 38.5008 49.6292 31.7367 49.6292 24.9818C49.6292 18.2258 49.6141 11.4742 49.5807 11.05C49.4254 9.07272 49.0864 7.74318 48.3963 6.33787C47.83 5.1875 47.2013 4.3284 46.2884 3.45C44.6593 1.89394 42.6669 0.946966 40.2928 0.604542C39.1424 0.438254 38.9133 0.389011 33.0271 0.378784H25.0122Z" fill="white"/>
<path d="M25.0008 6.81818C20.063 6.81818 19.4434 6.83977 17.504 6.92803C15.5685 7.01666 14.2473 7.3231 13.0913 7.77272C11.8955 8.23712 10.8811 8.85833 9.87055 9.86931C8.85922 10.8799 8.23803 11.8943 7.77213 13.0898C7.32139 14.2462 7.01458 15.5678 6.92746 17.5026C6.84072 19.442 6.81799 20.0621 6.81799 25C6.81799 29.9379 6.83996 30.5557 6.92784 32.4951C7.01685 34.4307 7.32328 35.7519 7.77251 36.9079C8.23727 38.1038 8.85846 39.1182 9.86942 40.1288C10.8796 41.1401 11.894 41.7629 13.089 42.2273C14.2458 42.6769 15.5673 42.9833 17.5025 43.072C19.4419 43.1602 20.0612 43.1818 24.9985 43.1818C29.9366 43.1818 30.5544 43.1602 32.4937 43.072C34.4293 42.9833 35.752 42.6769 36.9087 42.2273C38.1042 41.7629 39.117 41.1401 40.1272 40.1288C41.1385 39.1182 41.7597 38.1038 42.2256 36.9083C42.6726 35.7519 42.9794 34.4303 43.0703 32.4955C43.1574 30.5561 43.1801 29.9379 43.1801 25C43.1801 20.0621 43.1574 19.4424 43.0703 17.503C42.9794 15.5674 42.6726 14.2462 42.2256 13.0901C41.7597 11.8943 41.1385 10.8799 40.1272 9.86931C39.1159 8.85795 38.1045 8.23674 36.9076 7.77272C35.7486 7.3231 34.4266 7.01666 32.4911 6.92803C30.5517 6.83977 29.9343 6.81818 24.9951 6.81818H25.0008ZM23.3698 10.0947C23.8538 10.0939 24.394 10.0947 25.0008 10.0947C29.8552 10.0947 30.4305 10.1121 32.3475 10.1992C34.1202 10.2803 35.0823 10.5765 35.7232 10.8254C36.5716 11.1549 37.1765 11.5489 37.8125 12.1852C38.4489 12.8216 38.8428 13.4276 39.1731 14.2761C39.4219 14.9163 39.7185 15.8784 39.7992 17.6511C39.8863 19.5678 39.9052 20.1436 39.9052 24.9958C39.9052 29.8481 39.8863 30.4239 39.7992 32.3405C39.7181 34.1133 39.4219 35.0754 39.1731 35.7155C38.8435 36.564 38.4489 37.1682 37.8125 37.8042C37.1762 38.4405 36.572 38.8345 35.7232 39.164C35.083 39.414 34.1202 39.7095 32.3475 39.7905C30.4309 39.8776 29.8552 39.8966 25.0008 39.8966C20.146 39.8966 19.5706 39.8776 17.654 39.7905C15.8814 39.7087 14.9193 39.4125 14.278 39.1636C13.4295 38.8341 12.8235 38.4401 12.1871 37.8038C11.5508 37.1674 11.1569 36.5629 10.8266 35.714C10.5777 35.0739 10.2811 34.1117 10.2005 32.339C10.1133 30.4223 10.0959 29.8466 10.0959 24.9913C10.0959 20.136 10.1133 19.5633 10.2005 17.6466C10.2815 15.8739 10.5777 14.9117 10.8266 14.2708C11.1561 13.4223 11.5508 12.8163 12.1871 12.1799C12.8235 11.5436 13.4295 11.1496 14.278 10.8193C14.9189 10.5693 15.8814 10.2739 17.654 10.1924C19.3313 10.1167 19.9812 10.0939 23.3698 10.0901V10.0947ZM34.7058 13.1136C33.5013 13.1136 32.524 14.0898 32.524 15.2947C32.524 16.4992 33.5013 17.4765 34.7058 17.4765C35.9103 17.4765 36.8875 16.4992 36.8875 15.2947C36.8875 14.0901 35.9103 13.1129 34.7058 13.1129V13.1136ZM25.0008 15.6629C19.8445 15.6629 15.6639 19.8436 15.6639 25C15.6639 30.1564 19.8445 34.3352 25.0008 34.3352C30.1571 34.3352 34.3361 30.1564 34.3361 25C34.3361 19.8436 30.1567 15.6629 25.0004 15.6629H25.0008ZM25.0008 18.9394C28.3476 18.9394 31.0612 21.6526 31.0612 25C31.0612 28.347 28.3476 31.0606 25.0008 31.0606C21.6535 31.0606 18.9404 28.347 18.9404 25C18.9404 21.6526 21.6535 18.9394 25.0008 18.9394V18.9394Z" fill="#56A2FF"/>
<defs>
<radialGradient id="paint0_radial_3_117" cx="0" cy="0" r="1" gradientUnits="userSpaceOnUse" gradientTransform="translate(13.4612 53.4094) rotate(-90) scale(48.7987 45.3977)">
<stop stop-color="#FFDD55"/>
<stop offset="0.1" stop-color="#FFDD55"/>
<stop offset="0.5" stop-color="#FF543E"/>
<stop offset="1" stop-color="#C837AB"/>
</radialGradient>
</defs>
</svg>
