<svg width="50" height="50" viewBox="0 0 50 50" fill="none" xmlns="http://www.w3.org/2000/svg">
<path fill-rule="evenodd" clip-rule="evenodd" d="M11.2915 0H38.7085C41.7005 0.00862867 44.5676 1.20658 46.6833 3.33215C48.799 5.45772 49.9914 8.33813 50 11.3441V38.66C49.9903 41.6652 48.7975 44.5446 46.6819 46.6693C44.5663 48.794 41.6998 49.9914 38.7085 50H11.2915C8.30016 49.9914 5.43372 48.794 3.31812 46.6693C1.20253 44.5446 0.00966151 41.6652 0 38.66V11.3441C0.00858865 8.33813 1.20098 5.45772 3.31669 3.33215C5.4324 1.20658 8.29945 0.00862867 11.2915 0V0Z" fill="white"/>
<path fill-rule="evenodd" clip-rule="evenodd" d="M41.7277 14.5777C40.4768 15.1367 39.1488 15.5019 37.7889 15.661C39.219 14.7995 40.2912 13.4479 40.8081 11.8551C39.4602 12.6573 37.9867 13.2241 36.4502 13.5312C35.509 12.5238 34.2883 11.8237 32.9463 11.5216C31.6043 11.2195 30.203 11.3293 28.9239 11.8368C27.6448 12.3443 26.5469 13.2261 25.7725 14.3679C24.9981 15.5097 24.583 16.8589 24.5809 18.2405C24.5812 18.7687 24.6399 19.2952 24.7559 19.8103C22.0277 19.6725 19.3589 18.9596 16.9228 17.718C14.4868 16.4763 12.338 14.7336 10.616 12.6032C10.0055 13.6555 9.68393 14.8518 9.68424 16.0698V16.0698C9.68508 17.2024 9.96403 18.3172 10.4964 19.3156C11.0287 20.3139 11.798 21.1648 12.736 21.793C11.6466 21.7556 10.5814 21.46 9.62728 20.9304V21.0204C9.62237 22.6157 10.1685 24.1633 11.1724 25.3993C12.1764 26.6353 13.576 27.4831 15.1326 27.7982C14.5424 27.9592 13.9336 28.0416 13.3219 28.0435C12.8877 28.0408 12.4546 27.9984 12.028 27.9168C12.4673 29.2856 13.321 30.4825 14.4698 31.3407C15.6186 32.1988 17.0054 32.6753 18.4367 32.7038C15.5561 34.9719 11.8983 36.0009 8.26416 35.5654C11.4022 37.5931 15.0556 38.6689 18.7866 38.6641C31.4006 38.6641 38.3179 28.158 38.3179 19.0418C38.3179 18.7393 38.3179 18.4449 38.2975 18.1465C39.6421 17.1761 40.8014 15.9699 41.7196 14.5859L41.7277 14.5777Z" fill="#56A2FF"/>
</svg>
