<svg width="79" height="59" viewBox="0 0 79 59" fill="none" xmlns="http://www.w3.org/2000/svg">
<g clip-path="url(#clip0_3_55)">
<path d="M7.53483 0H65.1583C67.1561 0.0015605 69.0717 0.72971 70.4843 2.02459C71.897 3.31948 72.6914 5.07527 72.6931 6.90651V23.5717C71.7306 23.4225 70.7495 23.4027 69.7808 23.5128C69.5429 23.5128 69.305 23.5658 69.0671 23.6071V15.5043H3.63241V43.1127H45.9998C45.2921 44.1216 44.8173 45.2527 44.6047 46.4363H38.6578V55.6705H43.2288L43.1581 56.1537C43.0193 57.1004 43.0476 58.0615 43.2417 59H7.53483C5.53751 58.9969 3.62297 58.2682 2.21066 56.9737C0.798337 55.6791 0.0033997 53.9243 0 52.0935L0 6.90651C0.0033997 5.07575 0.798337 3.32086 2.21066 2.02631C3.62297 0.731765 5.53751 0.0031162 7.53483 0V0ZM62.4902 55.5467L52.8467 57.3146L54.2418 47.8859L62.4902 55.5467ZM57.2827 45.0809L70.2822 32.7058C70.4189 32.5654 70.6045 32.4728 70.8073 32.4438C71.0101 32.4148 71.2176 32.4511 71.3945 32.5466L78.7686 39.0878C78.8471 39.1593 78.9082 39.2452 78.9479 39.3399C78.9876 39.4346 79.005 39.536 78.9989 39.6373C78.9929 39.7386 78.9635 39.8376 78.9127 39.9277C78.8619 40.0178 78.7909 40.0971 78.7043 40.1603L65.5312 52.7005L57.2827 45.0809ZM32.4666 19.8297L45.2154 27.9737C45.4196 28.0972 45.5964 28.2552 45.7362 28.4393C45.8719 28.6186 45.9677 28.8208 46.0179 29.0341C46.0681 29.2475 46.0719 29.4678 46.0288 29.6825C45.9858 29.8972 45.8969 30.102 45.7673 30.2851C45.6376 30.4681 45.4697 30.6259 45.2733 30.7493L32.5824 38.7931C32.3158 38.9927 31.9929 39.1188 31.6513 39.1569C31.3097 39.195 30.9632 39.1435 30.6522 39.0084C30.3412 38.8733 30.0784 38.6601 29.8943 38.3935C29.7102 38.127 29.6124 37.8181 29.6121 37.5026V21.2145C29.6121 21.2145 29.8886 20.3365 29.94 20.2599C30.2172 19.9 30.6385 19.6552 31.1119 19.579C31.5852 19.5028 32.0723 19.6014 32.4666 19.8533V19.8297ZM35.0383 55.6705V46.4363H20.3865V55.6705H35.0383ZM16.7541 46.4363H3.63241V52.0935C3.6358 53.0412 4.04803 53.9492 4.77914 54.6194C5.51026 55.2895 6.50089 55.6674 7.53483 55.6705H16.7541V46.4363ZM52.8981 12.1748V3.3354H38.6578V12.1748H52.8981ZM56.5305 3.3354V12.1748H69.0607V6.90651C69.0573 5.95777 68.6442 5.04886 67.9117 4.37855C67.1792 3.70823 66.1869 3.33106 65.1519 3.3295L56.5305 3.3354ZM35.0254 12.1748V3.3354H20.3865V12.1748H35.0254ZM16.7541 12.1748V3.3354H7.53483C6.50089 3.3385 5.51026 3.71636 4.77914 4.38651C4.04803 5.05666 3.6358 5.96468 3.63241 6.9124V12.1807L16.7541 12.1748Z" fill="white"/>
</g>
<defs>
<clipPath id="clip0_3_55">
<rect width="79" height="59" fill="white"/>
</clipPath>
</defs>
</svg>
