<svg width="86" height="69" viewBox="0 0 86 69" fill="none" xmlns="http://www.w3.org/2000/svg">
<path fill-rule="evenodd" clip-rule="evenodd" d="M34.3706 24.6815C39.4097 28.3068 47.4862 24.4145 50.6636 30.7237C51.5034 32.3958 51.6854 34.6862 50.9295 36.5059C50.6216 37.2365 50.1737 37.8899 49.5578 38.3888C49.2848 38.6066 48.9839 38.8033 48.648 38.9719C44.5047 41.0375 40.1795 38.1499 37.891 34.6581C35.7843 31.4403 34.8675 27.4286 34.3706 24.6815ZM69.994 0H5.08105C2.28857 0 0 2.29742 0 5.1007V59.7471C0 62.5504 2.28857 64.8478 5.08105 64.8478H55.7236L51.3354 61.096H4.98307C4.59115 61.096 4.24821 60.9485 3.98926 60.6815C3.73031 60.4215 3.57633 60.0703 3.57633 59.6838V14.2834H3.55534H71.2957V35.1288L75.075 38.2061V5.1007C75.075 2.29742 72.7865 0 69.994 0ZM9.91716 5.73302C8.53141 5.73302 7.40462 6.86417 7.40462 8.25527C7.40462 9.64637 8.53141 10.7705 9.91716 10.7705C11.3029 10.7705 12.4297 9.63934 12.4297 8.25527C12.4297 6.86417 11.3029 5.73302 9.91716 5.73302ZM26.931 5.73302C25.5452 5.73302 24.4185 6.86417 24.4185 8.25527C24.4185 9.64637 25.5382 10.7705 26.931 10.7705C28.3167 10.7705 29.4435 9.63934 29.4435 8.25527C29.4435 6.86417 28.3167 5.73302 26.931 5.73302ZM18.4276 5.73302C17.0418 5.73302 15.915 6.86417 15.915 8.25527C15.915 9.64637 17.0418 10.7705 18.4276 10.7705C19.8133 10.7705 20.9401 9.63934 20.9401 8.25527C20.9331 6.86417 19.8133 5.73302 18.4276 5.73302ZM59.9299 52.37C62.7363 50.1218 64.9129 47.5293 66.3967 44.5574L84.4533 63.6745C85.818 64.9672 86.5879 66.0703 85.4471 68.0515C84.8802 68.6347 84.2783 68.9508 83.6414 68.993C83.0116 69.0351 82.3467 68.8103 81.6538 68.3044L59.9299 52.37ZM50.4046 41.2763C51.6224 40.623 53.2881 39.007 53.687 37.2436L64.9899 43.4684C63.3592 46.7283 61.2806 49.5176 58.4321 51.4988C55.4577 47.4941 53.792 45.0773 50.4046 41.2763Z" fill="white"/>
</svg>
